<svg
    width="32"
    height="32"
    viewBox="0 0 32 32"
    fill="none"
    xmlns="http://www.w3.org/2000/svg"
>
    <!-- Circle representing the group -->
    <circle
        cx="16"
        cy="16"
        r="14"
        stroke="#059669"
        stroke-width="2"
        fill="none"
    />
    <!-- Rupee symbol in the center -->
    <path
        d="M11 10 L20 10 M11 14 L18 14 M11 18 L20 26"
        stroke="#059669"
        stroke-width="2"
        stroke-linecap="round"
        stroke-linejoin="round"
    />
    <path
        d="M18 14 Q20 14 20 16 Q20 18 18 18 L11 18"
        stroke="#059669"
        stroke-width="2"
        fill="none"
        stroke-linecap="round"
    />
    <!-- Split arrows pointing outward -->
    <path
        d="M16 4 L16 7 M14 5 L16 4 L18 5"
        stroke="#059669"
        stroke-width="1.5"
        stroke-linecap="round"
        stroke-linejoin="round"
    />
    <path
        d="M28 16 L25 16 M27 14 L28 16 L27 18"
        stroke="#059669"
        stroke-width="1.5"
        stroke-linecap="round"
        stroke-linejoin="round"
    />
    <path
        d="M4 16 L7 16 M5 14 L4 16 L5 18"
        stroke="#059669"
        stroke-width="1.5"
        stroke-linecap="round"
        stroke-linejoin="round"
    />
    <path
        d="M23 9 L21 11 M24 8 L23 9 L22 8"
        stroke="#059669"
        stroke-width="1.5"
        stroke-linecap="round"
        stroke-linejoin="round"
    />
    <path
        d="M9 23 L11 21 M8 24 L9 23 L8 22"
        stroke="#059669"
        stroke-width="1.5"
        stroke-linecap="round"
        stroke-linejoin="round"
    />
</svg>